<svg version="1.1" id="Layer_1" xmlns="http://www.w3.org/2000/svg" xmlns:xlink="http://www.w3.org/1999/xlink" viewBox="0 0 512 512" xml:space="preserve" fill="#000000"><g id="SVGRepo_bgCarrier" stroke-width="0"></g><g id="SVGRepo_tracerCarrier" stroke-linecap="round" stroke-linejoin="round"></g><g id="SVGRepo_iconCarrier"> <path style="fill:#6f47c2;" d="M440,16h-96v496h96c17.672,0,32-14.328,32-32V48C472,30.328,457.672,16,440,16z"></path> <path style="fill:#5d32a8;" d="M344,496h72l0,0l0,0c0,8.84-7.16,16-16,16h-56l0,0V496L344,496z"></path> <g> <path style="fill:#E2E7F0;" d="M432,32h-16c13.256,0,24,10.744,24,24v416c0,13.256-10.744,24-24,24h16c13.256,0,24-10.744,24-24V56 C456,42.744,445.256,32,432,32z"></path> <path style="fill:#E2E7F0;" d="M416,32h-16c13.256,0,24,10.744,24,24v416c0,13.256-10.744,24-24,24h16c13.256,0,24-10.744,24-24V56 C440,42.744,429.256,32,416,32z"></path> </g> <path style="fill:#C9D5E3;" d="M400,32h-16c13.256,0,24,10.744,24,24v416c0,13.256-10.744,24-24,24h16c13.256,0,24-10.744,24-24V56 C424,42.744,413.256,32,400,32z"></path> <path style="fill:#7b56d8;" d="M408,480c0,17.672-14.328,32-32,32H56c-8.84,0-16-7.16-16-16V32c0-8.84,7.16-16,16-16h320 c17.672,0,32,14.328,32,32V480z"></path> <path style="fill:#a784e8;" d="M336,0c-8.84,0-16,7.16-16,16h32C352,7.16,344.84,0,336,0z"></path> <path style="fill:#cdbef6;" d="M336,0h-80c-8.84,0-16,7.16-16,16v112l40-16l40,16V16C320,7.16,327.16,0,336,0z"></path> <g> <path style="fill:#6f47c2;" d="M152,336h176c4.416,0,8,3.584,8,8l0,0c0,4.416-3.584,8-8,8H152c-4.416,0-8-3.584-8-8l0,0 C144,339.584,147.584,336,152,336z"></path> <path style="fill:#6f47c2;" d="M184,368h112c4.416,0,8,3.584,8,8l0,0c0,4.416-3.584,8-8,8H184c-4.416,0-8-3.584-8-8l0,0 C176,371.584,179.584,368,184,368z"></path> <path style="fill:#6f47c2;" d="M288,296v-16c0-20.56-23.44-24-32-32h-32c-8.56,8-32,11.44-32,32v16H288z"></path> <circle style="fill:#6f47c2;" cx="240" cy="208" r="24"></circle> <path style="fill:#6f47c2;" d="M56,16h24l0,0v496l0,0H56c-8.84,0-16-7.16-16-16V32C40,23.16,47.16,16,56,16z"></path> <path style="fill:#6f47c2;" d="M392,64v416c0,8.84-7.16,16-16,16H128c-8.84,0-16,7.16-16,16h264c17.672,0,32-14.328,32-32V48l0,0 C399.16,48,392,55.16,392,64z"></path> </g> <rect x="80" y="16" style="fill:#5d32a8;" width="16" height="496"></rect> </g></svg>
